<svg xmlns="http://www.w3.org/2000/svg" width="300" height="400" viewBox="0 0 300 400">
  <defs>
    <linearGradient id="bg" x1="0" y1="0" x2="0" y2="1">
      <stop offset="0" stop-color="#1B1B21"/>
      <stop offset="1" stop-color="#0f0f13"/>
    </linearGradient>
  </defs>
  <rect width="300" height="400" fill="url(#bg)"/>
  <rect x="0" y="0" width="300" height="4" fill="#E11D2E"/>
  <g transform="translate(150 200)" fill="none" stroke="#3a3a44" stroke-width="7" stroke-linecap="round" stroke-linejoin="round">
    <path d="M-62 -24h124c14 0 22 9 25 22l9 40c3 14-6 24-18 24-8 0-14-5-19-12l-10-14h-98l-10 14c-5 7-11 12-19 12-12 0-21-10-18-24l9-40c3-13 11-22 25-22z"/>
    <path d="M-46 -2v24M-58 10h24"/>
  </g>
  <g fill="#3a3a44">
    <circle cx="188" cy="202" r="6"/>
    <circle cx="204" cy="216" r="6"/>
  </g>
</svg>
